<svg width="681" height="536" viewBox="0 0 681 536" fill="none" xmlns="http://www.w3.org/2000/svg">
<path d="M351.097 233.481C366.133 296.52 422.469 341 487.277 341H526.269C526.599 341 527.211 341.052 528.201 341.496C529.216 341.951 530.898 342.951 532.843 345.057C536.964 349.518 541 357.782 541 368.5C541 379.218 536.964 387.482 532.843 391.943C530.898 394.049 529.216 395.049 528.201 395.504C527.211 395.948 526.599 396 526.269 396H247.754L247.641 396C229.941 396.014 211.721 390.706 194.971 379.419C178.087 368.04 163.019 350.729 152.841 328.29C142.641 305.802 138.22 279.974 140.654 254.01C143.087 228.054 152.139 204.324 165.677 185.39C179.157 166.536 196.145 153.657 213.699 146.622C231.115 139.643 249.427 138.229 267.033 142.152C284.737 146.097 302.513 155.644 317.776 171.367C333.132 187.184 345.142 208.513 351.097 233.481Z" stroke="#E4CC9C" stroke-width="280" stroke-linecap="round" stroke-linejoin="round"/>
</svg>
